# xmcd CD database file
#
# Track frame offsets:
#	150
#	17446
#	35075
#	52344
#
# Disc length: 932 seconds
#
# Revision: 0
# Processed by: cddbd v1.5.1PL2 Copyright (c) Steve Scherf et al.
# Submitted via: CDex 1.51
#
DISCID=3003a204
DTITLE=mihimaru GT - 気分上々↑↑
DYEAR=2006
DGENRE=J-POP
TTITLE0=気分上々↑↑
TTITLE1=The 7 Wonders
TTITLE2=気分上々↑↑ (Instrumental)
TTITLE3=The 7 Wonders (Instrumental)
EXTD=YEAR: 2006
EXTT0=
EXTT1=
EXTT2=
EXTT3=
PLAYORDER=
